<svg width="19" height="18" viewBox="0 0 19 18" fill="none" xmlns="http://www.w3.org/2000/svg">
<path d="M9.28 17.7C7.36 17.7 5.77333 17.4133 4.52 16.84C3.26667 16.2667 2.33333 15.4267 1.72 14.32C1.10667 13.2133 0.8 11.8533 0.8 10.24V8.24C0.8 6.64 1.1 5.23333 1.7 4.02C2.3 2.79333 3.22667 1.83333 4.48 1.14C5.74667 0.446666 7.35333 0.099999 9.3 0.099999C12.34 0.099999 14.58 0.739999 16.02 2.02C17.4733 3.28667 18.2 5.16 18.2 7.64V8.64C18.2 9.62667 18.0267 10.5067 17.68 11.28C17.3333 12.04 16.8267 12.6333 16.16 13.06C15.4933 13.4867 14.68 13.7 13.72 13.7C13.0133 13.7 12.44 13.56 12 13.28C11.56 12.9867 11.2467 12.6 11.06 12.12C10.8867 11.64 10.84 11.1133 10.92 10.54L11.56 5.96C11.24 5.89333 10.9 5.84 10.54 5.8C10.1933 5.76 9.84 5.74 9.48 5.74C8.90667 5.74 8.40667 5.91333 7.98 6.26C7.56667 6.60667 7.29333 7.24 7.16 8.16L6.88 10.14C6.78667 10.86 6.83333 11.3867 7.02 11.72C7.22 12.0533 7.60667 12.22 8.18 12.22C8.68667 12.22 9.18 12.0667 9.66 11.76C10.14 11.44 10.6467 11.06 11.18 10.62L11.34 12.08C10.8467 12.4667 10.28 12.84 9.64 13.2C9 13.5467 8.34 13.72 7.66 13.72C6.64667 13.72 5.94667 13.4267 5.56 12.84C5.18667 12.24 5.07333 11.38 5.22 10.26L5.52 8C5.66667 6.85333 6.06667 5.94 6.72 5.26C7.38667 4.58 8.30667 4.24 9.48 4.24C9.98667 4.24 10.4333 4.27333 10.82 4.34C11.2067 4.39333 11.58 4.45333 11.94 4.52C12.3 4.58667 12.7 4.64 13.14 4.68C13.2733 4.69333 13.3333 4.76667 13.32 4.9L12.6 10.18C12.5067 10.8467 12.5333 11.3533 12.68 11.7C12.84 12.0333 13.1933 12.2 13.74 12.2C14.5533 12.2 15.2133 11.8933 15.72 11.28C16.24 10.6533 16.5 9.77333 16.5 8.64V7.64C16.5 5.66667 15.9133 4.17333 14.74 3.16C13.58 2.13333 11.7667 1.62 9.3 1.62C7.83333 1.62 6.59333 1.88 5.58 2.4C4.56667 2.90667 3.8 3.65333 3.28 4.64C2.76 5.61333 2.5 6.81333 2.5 8.24V10.24C2.5 11.5333 2.74667 12.62 3.24 13.5C3.73333 14.38 4.48 15.0467 5.48 15.5C6.48 15.9533 7.74667 16.18 9.28 16.18H12C12.1333 16.18 12.2 16.2467 12.2 16.38V17.5C12.2 17.6333 12.1333 17.7 12 17.7H9.28Z" fill="black"/>
</svg>
