<svg width="21" height="21" viewBox="0 0 21 21" fill="none" xmlns="http://www.w3.org/2000/svg">
<path d="M9.67417 16.9672L7.63362 14.9258C7.54423 14.8364 7.43811 14.7655 7.32132 14.7171C7.20453 14.6687 7.07936 14.6438 6.95295 14.6438C6.82654 14.6438 6.70136 14.6687 6.58458 14.7171C6.46779 14.7655 6.36167 14.8364 6.27228 14.9258C6.1829 15.0151 6.11199 15.1213 6.06362 15.238C6.01524 15.3548 5.99034 15.48 5.99034 15.6064C5.99034 15.7328 6.01524 15.858 6.06362 15.9748C6.11199 16.0915 6.1829 16.1976 6.27228 16.287L8.3138 18.3265L5.93267 20.7085L1.6707 20.4237C1.43825 20.4084 1.21924 20.3093 1.05434 20.1448C0.889445 19.9802 0.789849 19.7615 0.774045 19.5291L0.490234 15.2654L7.1266 8.62931C6.87397 7.21808 7.07833 5.76306 7.70994 4.47602C8.34155 3.18898 9.36744 2.13709 10.6383 1.47344C11.9092 0.8098 13.3587 0.569043 14.7759 0.786214C16.1931 1.00339 17.5039 1.66715 18.5177 2.6809C19.5315 3.69465 20.1953 5.00547 20.4125 6.42258C20.6297 7.8397 20.3889 9.28914 19.7253 10.5599C19.0616 11.8308 18.0096 12.8566 16.7225 13.4882C15.4354 14.1198 13.9803 14.3241 12.569 14.0715L9.67321 16.9662L9.67417 16.9672ZM13.0751 8.12328C13.2537 8.30198 13.4658 8.44375 13.6993 8.54048C13.9327 8.63722 14.1829 8.68703 14.4356 8.68708C14.6883 8.68712 14.9385 8.6374 15.172 8.54075C15.4055 8.44409 15.6176 8.3024 15.7963 8.12376C15.975 7.94513 16.1168 7.73304 16.2135 7.49961C16.3103 7.26619 16.3601 7.016 16.3601 6.76332C16.3602 6.51064 16.3105 6.26043 16.2138 6.02697C16.1171 5.79351 15.9754 5.58138 15.7968 5.40267C15.436 5.04177 14.9466 4.83897 14.4363 4.83888C13.926 4.83879 13.4365 5.04142 13.0756 5.40219C12.7147 5.76297 12.5118 6.25234 12.5117 6.76264C12.5117 7.27294 12.7143 7.76238 13.0751 8.12328Z" fill="#21272A"/>
</svg>
