<svg width="19" height="19" viewBox="0 0 19 19" fill="none" xmlns="http://www.w3.org/2000/svg">
<path d="M3.82639 8.22806C5.34639 11.2153 7.79 13.6589 10.7825 15.1789L13.1047 12.8514C13.395 12.5611 13.8119 12.4767 14.1761 12.5928C15.3583 12.9833 16.6303 13.1944 17.9444 13.1944C18.5303 13.1944 19 13.6642 19 14.25V17.9444C19 18.5303 18.5303 19 17.9444 19C8.03278 19 0 10.9672 0 1.05556C0 0.469722 0.475 0 1.05556 0H4.75C5.33583 0 5.80556 0.469722 5.80556 1.05556C5.80556 2.36972 6.01667 3.64167 6.40722 4.82389C6.52333 5.18806 6.43889 5.605 6.14861 5.89528L3.82639 8.22806Z" fill="black"/>
</svg>
