<svg width="17" height="14" viewBox="0 0 17 14" fill="none" xmlns="http://www.w3.org/2000/svg">
<path fill-rule="evenodd" clip-rule="evenodd" d="M1.12555 5.84121C5.52059 3.92637 8.45131 2.66398 9.9177 2.05406C14.1045 0.312604 14.9745 0.0100955 15.5416 0.000106505C15.6663 -0.00209047 15.9452 0.028818 16.1258 0.175388C16.2783 0.29915 16.3203 0.466333 16.3404 0.583673C16.3604 0.701012 16.3854 0.968314 16.3656 1.17718C16.1387 3.56109 15.1569 9.34623 14.6575 12.0163C14.4462 13.146 14.03 13.5249 13.6272 13.5619C12.7517 13.6425 12.0868 12.9833 11.2389 12.4275C9.91196 11.5577 9.16234 11.0162 7.87434 10.1674C6.38584 9.18654 7.35078 8.64742 8.19907 7.76635C8.42107 7.53577 12.2786 4.02707 12.3532 3.70877C12.3626 3.66897 12.3712 3.52058 12.2831 3.44223C12.1949 3.36388 12.0648 3.39067 11.9709 3.41198C11.8379 3.44218 9.7181 4.84326 5.61168 7.61521C5.00999 8.02838 4.46501 8.22968 3.97672 8.21913C3.43842 8.2075 2.40294 7.91477 1.63317 7.66455C0.689018 7.35764 -0.061376 7.19538 0.00396647 6.67416C0.0380009 6.40267 0.411861 6.12502 1.12555 5.84121Z" fill="url(#paint0_linear_246_303)"/>
<defs>
<linearGradient id="paint0_linear_246_303" x1="16.1015" y1="0.0904581" x2="7.17631" y2="9.79958" gradientUnits="userSpaceOnUse">
<stop stop-color="#475361"/>
<stop offset="1" stop-color="#1D1D1D"/>
</linearGradient>
</defs>
</svg>
